<svg width="47" height="60" version="1.1" viewBox="0 0 777.06 1011.5" xmlns="http://www.w3.org/2000/svg">
 <g transform="matrix(.1 0 0 -.1 -111.44 516.73)" stroke="#fff" stroke-width="314.57" fill="#FFC107">
  <path d="m4613.7 4990.3c-1459.7-153.3-2719-1157.1-3181-2537.1-335.3-1005.8-229-2218.1 271.9-3093.1 241.2-415 541.8-752.3 1200.1-1335 247.4-220.8 554-502.9 680.8-625.6 648.1-631.7 1003.8-1175.5 1279.8-1954.4 77.7-214.7 90-235.1 134.9-235.1 42.9 0 57.2 16.4 90 112.4 161.5 470.2 329.1 821.8 552 1165.3 288.3 439.5 607.2 778.9 1371.8 1461.7 697 623.6 946.4 885.3 1189.7 1261.4 576.5 887.2 719.6 2175.2 363.9 3242.4-552 1649.8-2218.2 2717-3953.9 2537.1z" stroke="#FFF" stroke-width="314.57" fill="#FFC107"/>
 </g>
 <ellipse cx="387.72" cy="397.22" rx="242.41" ry="243.03" fill="#FFF" stroke-width="3.217"/>
 <path d="m532.75 269.71c4.9183-16.501 3.9983-29.22-2.7721-38.162-7.9953-7.5643-19.375-8.5919-34.136-3.1013-14.761 5.5009-27.986 14.782-39.674 27.844l-36.9 41.256-153.37-40.997c-2.4608-0.86095-4.7665-0.17413-6.9182 2.0607l-29.525 33.005c-1.6892 1.8932-2.3837 4.2134-2.0747 6.9635 0.46152 2.7535 1.7688 4.8138 3.9212 6.1897l117.16 71.939-59.737 66.784-44.745-13.663c-0.30664-0.17015-0.91971-0.25977-1.8435-0.25977-2.1535 0-3.9205 0.77229-5.305 2.321l-22.139 25.009c-1.5373 2.0581-2.2282 4.2086-2.0744 6.4413 0.30532 2.7501 1.3046 4.7276 2.9976 5.9332l58.117 48.729 43.589 64.974c1.3845 1.8945 3.2303 3.0066 5.537 3.3559h0.46139c2.1531 0 3.9199-0.77194 5.305-2.3172l22.137-24.748c1.9987-2.4102 2.6142-5.0746 1.8468-7.9958l-12.225-50.021 59.735-66.788 64.351 131c0.92131 2.2355 2.535 3.6095 4.843 4.1258 0.45888 0.17398 0.99801 0.25659 1.615 0.25659 1.841 0 3.3037-0.51654 4.3792-1.5459l29.529-24.752c2.6092-2.4054 3.5321-5.239 2.7677-8.5056l-36.902-179.46 37.134-41.511c11.682-13.069 19.984-27.854 24.905-44.356z" fill="#FFC107" stroke-width=".85414"/>
</svg>
