<svg width="30" height="40" version="1.1" viewBox="0 0 325.19 435.72" xmlns="http://www.w3.org/2000/svg">
 <g transform="translate(-39.905 10.635)" stroke="#fff" stroke-width="21.27" fill="#FFF">
  <path d="m45.539 0v314.29h98.864l58.259 91.058 58.269-91.058h98.874v-314.29z" stroke="#FFF" stroke-width="21.27" fill="#FFC107"/>
 </g>
 <path d="m156.57 47.504v9.8903c-25.886 2.1765-48.504 15.991-62.607 36.181l-8.598-4.9633-7.1922 12.453 8.5768 4.9485c-5.1766 10.981-8.0726 23.237-8.0726 36.161 0 12.923 2.8959 25.179 8.0726 36.161l-8.5768 4.9485 7.1922 12.461 8.598-4.9633c8.5855 12.294 20.326 22.222 34.044 28.6l-11.594 31.851h-62.706v14.384h218.12v-14.384h-60.711l-11.594-31.851c13.718-6.3774 25.466-16.305 34.051-28.6l8.598 4.9633 7.1851-12.461-8.5694-4.9485c5.1766-10.981 8.0729-23.237 8.0729-36.161 0-12.922-2.8963-25.179-8.0729-36.161l8.5694-4.9485-7.1851-12.453-8.598 4.9633c-14.1-20.19-36.719-34.006-62.607-36.181v-9.8903zm0 24.332v37.823c2.3173-0.51205 4.723-0.79571 7.1922-0.79571 2.4689 0 4.868 0.28483 7.1851 0.79571v-37.823c20.578 2.0875 38.573 13.038 50.104 28.961l-32.732 18.9c3.2386 3.5353 5.7257 7.7705 7.2072 12.446l32.736-18.906c3.9805 8.8379 6.1982 18.633 6.1982 28.938 0 10.305-2.217 20.109-6.1982 28.947l-32.736-18.906c-1.4812 4.6759-3.9683 8.9101-7.2072 12.446l32.732 18.9c-6.8297 9.4287-15.925 17.117-26.483 22.25l-12.935-35.542c-4.0049 2.5584-8.591 4.281-13.511 4.928l12.935 35.542c-5.539 1.3991-11.335 2.1439-17.303 2.1439-5.9676 0-11.756-0.74475-17.295-2.1439l12.935-35.542c-4.9209-0.64694-9.506-2.3695-13.511-4.928l-12.937 35.542c-10.558-5.1326-19.652-12.822-26.483-22.25l32.739-18.9c-3.2386-3.5359-5.7254-7.7705-7.2066-12.446l-32.745 18.906c-3.9805-8.8379-6.1982-18.641-6.1982-28.947 0-10.305 2.2177-20.1 6.1982-28.938l32.745 18.906c1.4812-4.6762 3.968-8.9107 7.2066-12.446l-32.739-18.9c11.533-15.922 29.528-26.872 50.104-28.961zm7.1922 51.41c-10.44 0-18.935 8.489-18.935 18.928 0 10.44 8.496 18.936 18.935 18.936 10.44 0 18.928-8.496 18.928-18.936 0-10.439-8.488-18.928-18.928-18.928zm-22.244 101.06c4.8597 1.3181 9.891 2.2145 15.052 2.6487v9.8974h14.384v-9.8977c5.1609-0.43408 10.192-1.3305 15.052-2.6487l9.7979 26.925h-64.082z" fill="#FFF" stroke-width=".47936"/>
</svg>
