<svg width="47" height="60" version="1.1" viewBox="0 0 777.06 1011.5" xmlns="http://www.w3.org/2000/svg">
 <g transform="matrix(.1 0 0 -.1 -111.44 516.73)" stroke="#fff" stroke-width="314.57" fill="#FFC107">
  <path d="m4613.7 4990.3c-1459.7-153.3-2719-1157.1-3181-2537.1-335.3-1005.8-229-2218.1 271.9-3093.1 241.2-415 541.8-752.3 1200.1-1335 247.4-220.8 554-502.9 680.8-625.6 648.1-631.7 1003.8-1175.5 1279.8-1954.4 77.7-214.7 90-235.1 134.9-235.1 42.9 0 57.2 16.4 90 112.4 161.5 470.2 329.1 821.8 552 1165.3 288.3 439.5 607.2 778.9 1371.8 1461.7 697 623.6 946.4 885.3 1189.7 1261.4 576.5 887.2 719.6 2175.2 363.9 3242.4-552 1649.8-2218.2 2717-3953.9 2537.1z" stroke="#FFF" stroke-width="314.57" fill="#FFC107"/>
 </g>
 <ellipse cx="387.72" cy="397.22" rx="242.41" ry="243.03" fill="#FFF" stroke-width="3.217"/>
 <path d="m561.52 341.65h-26.646c-2.0305 0-3.981 0.81003-5.4459 2.2597l-5.6888 5.6265c-9.5867-22.909-23.341-45.56-41.923-69.014-10.045-12.671-24.897-19.938-40.754-19.938h-106.69c-15.858 0-30.712 7.2677-40.75 19.938-19.164 24.19-32.646 46.298-42.009 68.931l-5.6033-5.5433c-1.4644-1.4501-3.4161-2.2597-5.4457-2.2597h-26.646c-4.3472 0-7.8703 3.6381-7.8703 8.1256v18.811c0 4.2893 3.2301 7.8398 7.3753 8.1103l27.388 1.781c-4.1382 12.486-7.3697 31.09-7.3697 57.331 0 22.769 4.4038 37.732 12.068 47.418v43.833c0 3.7579 2.9512 6.8049 6.5927 6.8049h30.317c3.6413 0 6.5927-3.047 6.5927-6.8049v-27.219h197.41v27.219c0 3.7579 2.9521 6.8049 6.5916 6.8049h30.317c3.6415 0 6.5933-3.047 6.5933-6.8049v-43.833c7.6628-9.6871 12.068-24.65 12.068-47.418 0-26.241-3.2315-44.845-7.3697-57.331l27.388-1.781c4.1444-0.27085 7.3745-3.8208 7.3745-8.1103v-18.811c0-4.4877-3.5219-8.1256-7.8691-8.1256zm-245.39-42.128c4.4977-5.6771 11.152-8.935 18.255-8.935h106.69c7.1019 0 13.759 3.2579 18.256 8.935 12.998 16.406 23.264 32.108 31.197 47.747l-205.77 0.0334c7.7587-15.292 18.082-31.007 31.377-47.786zm-22.424 167.03c-15.088 0-27.321-5.0886-27.321-17.433 0-12.344 4.4385-22.355 19.529-22.355s35.112 10.011 35.112 22.355c0 12.344-12.232 17.433-27.319 17.433zm122.66-2.5718h-57.275c-8.635 0-15.659-7.2532-15.659-16.168 0-2.5008 1.9638-4.5288 4.3867-4.5288h79.822c2.423 0 4.385 2.0283 4.385 4.5288 0 8.9153-7.0241 16.168-15.659 16.168zm65.385 2.5718c-15.091 0-27.321-5.0886-27.321-17.433 0-12.344 20.026-22.355 35.112-22.355 15.089 0 19.527 10.011 19.527 22.355 0 12.344-12.23 17.433-27.319 17.433z" fill="#FFC107" stroke-width=".85503"/>
</svg>
