<svg width="47" height="60" version="1.1" viewBox="0 0 777.06 1011.5" xmlns="http://www.w3.org/2000/svg">
 <g transform="matrix(.1 0 0 -.1 -111.44 516.73)" stroke="#fff" stroke-width="314.57" fill="#FFC107">
  <path d="m4613.7 4990.3c-1459.7-153.3-2719-1157.1-3181-2537.1-335.3-1005.8-229-2218.1 271.9-3093.1 241.2-415 541.8-752.3 1200.1-1335 247.4-220.8 554-502.9 680.8-625.6 648.1-631.7 1003.8-1175.5 1279.8-1954.4 77.7-214.7 90-235.1 134.9-235.1 42.9 0 57.2 16.4 90 112.4 161.5 470.2 329.1 821.8 552 1165.3 288.3 439.5 607.2 778.9 1371.8 1461.7 697 623.6 946.4 885.3 1189.7 1261.4 576.5 887.2 719.6 2175.2 363.9 3242.4-552 1649.8-2218.2 2717-3953.9 2537.1z" stroke="#FFF" stroke-width="314.57" fill="#FFC107"/>
 </g>
 <ellipse cx="387.72" cy="397.22" rx="242.41" ry="243.03" fill="#FFF" stroke-width="3.217"/>
 <g transform="matrix(2.0904 0 0 2.0904 4.3986 33.764)" fill="#FFC107" stroke-width=".31693">
  <path d="m234.29 121.2h-46.925l6.5029-21.068h25.777c2.6949 0 4.882-2.3596 4.882-5.2669 0-2.9074-2.1871-5.2669-4.882-5.2669h-29.292c-2.0993 0-3.9642 1.4536-4.6379 3.6026l-8.651 27.999h-50.179c-2.6949 0-4.882 2.3596-4.882 5.2669v15.801c0 33.076 23.678 60.245 53.702 62.94v42.399h-19.528c-2.6949 0-4.882 2.3596-4.882 5.2669 0 2.9074 2.1871 5.2669 4.882 5.2669h48.82c2.6949 0 4.882-2.3596 4.882-5.2669 0-2.9074-2.1871-5.2669-4.882-5.2669h-19.528v-42.399c30.025-2.6966 53.702-29.864 53.702-62.94v-15.801c0-2.9074-2.1871-5.2669-4.882-5.2669zm-4.882 21.068h-97.637v-10.534h97.637z" fill="#FFC107"/>
  <path d="m126.22 92.91c-16.18 0-29.292 14.147-29.292 31.602 0 14.032 8.5241 25.776 20.25 29.906-0.33198-2.9179-0.72253-5.8358-0.72253-8.838v-15.801c0-8.7116 6.5712-15.801 14.647-15.801h22.614c-4.0325-12.251-14.763-21.068-27.496-21.068z" fill="#FFC107"/>
 </g>
</svg>
