<svg width="47" height="60" version="1.1" viewBox="0 0 777.06 1011.5" xmlns="http://www.w3.org/2000/svg">
 <g transform="matrix(.1 0 0 -.1 -111.44 516.73)" stroke="#fff" stroke-width="314.57" fill="#FFC107">
  <path d="m4613.7 4990.3c-1459.7-153.3-2719-1157.1-3181-2537.1-335.3-1005.8-229-2218.1 271.9-3093.1 241.2-415 541.8-752.3 1200.1-1335 247.4-220.8 554-502.9 680.8-625.6 648.1-631.7 1003.8-1175.5 1279.8-1954.4 77.7-214.7 90-235.1 134.9-235.1 42.9 0 57.2 16.4 90 112.4 161.5 470.2 329.1 821.8 552 1165.3 288.3 439.5 607.2 778.9 1371.8 1461.7 697 623.6 946.4 885.3 1189.7 1261.4 576.5 887.2 719.6 2175.2 363.9 3242.4-552 1649.8-2218.2 2717-3953.9 2537.1z" stroke="#FFF" stroke-width="314.57" fill="#FFC107"/>
 </g>
 <ellipse cx="387.72" cy="397.22" rx="242.41" ry="243.03" fill="#FFF" stroke-width="3.217"/>
 <path d="m506.39 366.14c-2.9939 0-5.9386 0.19941-8.8384 0.53137l-18.226-59.854c1.7795-1.9904 2.8613-4.5729 2.8613-7.4004 0-6.2837-5.3109-11.381-11.862-11.381h-48.928c-6.5496 0-11.862 5.0972-11.862 11.381 0 6.2837 5.3125 11.379 11.862 11.379h30.988l-12.599 19.24c-0.55733-0.0735-1.1275-0.1089-1.6988-0.0976l-105.93 1.4744c2.6239-2.0878 4.2976-5.2406 4.2976-8.7659 0-6.2833-5.3113-11.379-11.862-11.379h-28.576c-6.5511 0-11.862 5.096-11.862 11.379 0 6.2837 5.3113 11.379 11.862 11.379h2.1328c0.28543 1.0196 0.71515 2.0175 1.3164 2.9633l4.7636 7.521-13.149 24.884c-6.9556-2.1148-14.357-3.2627-22.035-3.2627-40.313 1e-3 -73.112 31.465-73.112 70.141 0 38.674 32.798 70.139 73.112 70.139 34.813 0 64.004-23.473 71.324-54.785l39.122 2.1717c0.22994 0.0146 0.45905 0.0216 0.68647 0.0216 4.0623 0 7.8645-2.0004 10.042-5.3265l73.4-112.08 11.154 36.626c-24.529 11.333-41.498 35.42-41.498 63.239 0 38.674 32.796 70.139 73.112 70.139 40.315 0 73.114-31.465 73.114-70.139 0-38.676-32.8-70.141-73.114-70.141zm-187.65 1.2725 39.534 62.421-16.512-0.91618c-2.2008-20.153-13.34-37.786-29.529-49.193zm-99.072 68.868c0-26.126 22.156-47.383 49.388-47.383 3.8127 0 7.5227 0.43016 11.09 1.2192l-21.669 41.018c-1.809 3.4222-1.6976 7.4893 0.29757 10.818 1.995 3.3273 5.6031 5.4647 9.5974 5.6865l47.866 2.6573c-6.2453 19.305-25.032 33.363-47.18 33.363-27.232 0-49.388-21.255-49.388-47.381zm68.155-10.358 13.468-25.49c8.3112 6.8891 14.208 16.379 16.3 27.144zm92.506-5.091-42.268-66.736 86.76-1.2065zm126.07 62.831c-27.234 0-49.388-21.255-49.388-47.381 0-17.45 9.8892-32.715 24.564-40.934l13.438 44.126c1.8385 6.0339 8.4285 9.4975 14.71 7.7338 6.2892-1.7627 9.8972-8.0827 8.0599-14.113l-13.439-44.141c0.68192-0.0302 1.3659-0.0546 2.0551-0.0546 27.234 0 49.388 21.253 49.388 47.381 0 26.126-22.154 47.381-49.388 47.381z" fill="#FFC107" stroke-width="1.1618"/>
</svg>
