<svg width="512" height="512" version="1.1" viewBox="0 0 135.62 135.47" xmlns="http://www.w3.org/2000/svg">
 <path d="m19.756 129.55c-11.43-2.1543-18.812-7.271-18.819-13.043-9.677e-4 -2.5019 3.0426-6.2611 6.6733-8.238 5.1761-2.8183 10.612-4.2197 17.886-4.6117l6.7218-0.36238 28.182-12.827c15.499-7.0547 29.379-13.373 30.844-14.04 2.6236-1.1957 2.6546-1.2401 2.0979-3.0296-0.4209-1.3585-0.40593-2.2467 0.07677-3.5242 0.35018-0.93942 0.45349-1.9202 0.22654-2.1796-0.2249-0.25946-10.767-5.5597-23.422-11.779-12.656-6.2189-25.823-12.699-29.26-14.399-6.1446-3.0398-6.307-3.0821-9.5656-2.5096-6.3021 1.1072-15.604-0.56786-19.882-3.5799-8.101-5.7049 0.18661-13.065 14.756-13.107 3.27-2e-3 7.2678 0.33982 8.8823 0.77474 2.899 0.78174 3.2142 0.71423 24.303-5.203 11.752-3.2972 21.541-5.9951 21.753-5.9951 0.20971 0 0.38961-0.68511 0.38961-1.5228 0-3.5111 5.6896-6.1764 13.184-6.1764 13.468 0 18.085 7.94 6.535 11.238-3.4484 0.98484-9.2502 1.0745-12.405 0.19135-2.0657-0.57788-3.9756-0.07363-23.14 6.1141l-20.888 6.744v1.9311c0 1.062-0.27998 2.2696-0.62105 2.6838-0.39161 0.47236-0.436 0.96352-0.12676 1.3192 0.75493 0.87103 61.383 27.896 62.41 27.82 13.726-1.0133 24.149 1.351 27.546 6.2485 4.6691 6.7318-5.048 12.995-20.285 13.074l-6.0973 0.02801-25.079 15.527c-18.015 11.153-25.018 15.782-24.866 16.436 1.1005 4.726-0.09046 7.7363-4.1974 10.613-7.5208 5.2667-22.106 7.5874-33.813 5.3808z" fill="#212121" stroke-width=".56954"/>
</svg>
