<svg width="30" height="30" version="1.1" viewBox="0 0 438.53 438.53" xmlns="http://www.w3.org/2000/svg">
 <path d="m409.13 109.2c-19.608-33.592-46.205-60.189-79.798-79.796-33.599-19.606-70.277-29.407-110.06-29.407-39.781 0-76.47 9.801-110.06 29.407-33.595 19.604-60.192 46.201-79.8 79.796-19.609 33.597-29.41 70.286-29.41 110.06 0 39.78 9.804 76.463 29.407 110.06 19.607 33.592 46.204 60.189 79.799 79.798 33.597 19.605 70.283 29.407 110.06 29.407s76.47-9.802 110.06-29.407c33.593-19.602 60.189-46.206 79.795-79.798 19.603-33.596 29.403-70.284 29.403-110.06 1e-3 -39.782-9.8-76.472-29.399-110.06zm-43.687 128.34c0 4.948-1.808 9.236-5.421 12.847-3.621 3.614-7.898 5.431-12.847 5.431h-143.32l53.958 53.958c3.429 3.425 5.14 7.703 5.14 12.847 0 5.14-1.711 9.418-5.14 12.847l-25.981 25.98c-3.426 3.423-7.712 5.141-12.849 5.141-5.136 0-9.419-1.718-12.847-5.141l-129.33-129.34c-3.427-3.429-5.142-7.707-5.142-12.845 0-5.14 1.714-9.42 5.142-12.847l129.33-129.34c3.428-3.425 7.707-5.137 12.847-5.137 5.141 0 9.423 1.711 12.849 5.137l25.981 25.981c3.617 3.617 5.428 7.902 5.428 12.851 0 4.948-1.811 9.231-5.428 12.847l-53.958 53.959h143.32c4.948 0 9.226 1.809 12.847 5.426 3.613 3.615 5.421 7.898 5.421 12.847v36.545z" fill="#87aade"/>
</svg>
