<svg width="30" height="30" version="1.1" viewBox="0 0 438.53 438.53" xmlns="http://www.w3.org/2000/svg">
 <path d="m409.13 329.32c-19.608 33.592-46.205 60.189-79.798 79.796-33.599 19.606-70.277 29.407-110.06 29.407-39.781 0-76.47-9.801-110.06-29.407-33.595-19.604-60.192-46.201-79.8-79.796-19.609-33.597-29.41-70.286-29.41-110.06 0-39.78 9.804-76.463 29.407-110.06 19.607-33.592 46.204-60.189 79.799-79.798 33.597-19.605 70.283-29.407 110.06-29.407s76.47 9.802 110.06 29.407c33.593 19.602 60.189 46.206 79.795 79.798 19.603 33.596 29.403 70.284 29.403 110.06 1e-3 39.782-9.8 76.472-29.399 110.06zm-47.684-123.2-103.35-103.36-25.98-25.981c-3.426-3.422-7.707-5.133-12.849-5.133-5.136 0-9.419 1.711-12.847 5.133l-129.34 129.34c-3.422 3.43-5.137 7.707-5.137 12.849 0 5.137 1.709 9.42 5.137 12.847l25.981 25.981c3.621 3.617 7.9 5.424 12.85 5.424 4.952 0 9.235-1.807 12.85-5.424l53.959-53.955v143.32c0 4.949 1.809 9.233 5.426 12.847 3.616 3.618 7.898 5.428 12.847 5.428h36.547c4.948 0 9.233-1.81 12.847-5.428 3.614-3.614 5.428-7.898 5.428-12.847v-143.32l53.954 53.955c3.429 3.427 7.703 5.14 12.847 5.14 5.141 0 9.421-1.713 12.847-5.14l25.981-25.981c3.432-3.427 5.14-7.71 5.14-12.847-1e-3 -5.141-1.709-9.423-5.141-12.848z" fill="#87aade"/>
</svg>
