<svg xmlns="http://www.w3.org/2000/svg" width="32" height="60" version="1.1" viewBox="0 0 139.65 264.94">
 <ellipse cx="70.093" cy="69.24" rx="50.398" ry="50.923" fill="#F5F5F5"/>
 <g transform="translate(-62.657 -.00099764)">
  <path d="m156.83 70.804c0 13.473-10.904 24.396-24.357 24.396-13.434 0-24.357-10.923-24.357-24.396 0-13.434 12.88-24.337 24.357-24.337s24.357 10.903 24.357 24.337zm46.467-9e-3c0 8.764-1.661 17.098-4.563 24.836-9.282 27.571-70.736 169.31-70.736 169.31s-57.859-154.54-62.881-172.26c-2.237-6.868-3.478-14.196-3.478-21.866 0-39.071 31.714-70.814 70.834-70.814 39.119-0.01 70.833 31.733 70.824 70.795zm-25.637 0.283c0-24.953-20.214-45.197-45.187-45.197-24.953 0-45.177 20.234-45.177 45.187s20.224 45.187 45.177 45.187c24.972 0 45.187-20.224 45.187-45.177z" fill="#b71c1c"/>
 </g>
</svg>
