<svg width="63" height="63" version="1.1" viewBox="0 0 509.47 509.47" xmlns="http://www.w3.org/2000/svg">
 <path d="m479.25 152.55c-62.343 22.953-109.84 39.299-151.63 90.978-37.229 46.05-90.98 62.011-151.63 31.657v165.46h-30.329v-409.4c-1e-3 -8.382 6.781-15.163 15.162-15.163 8.38 0 15.166 6.781 15.166 15.163 33.67 48.953 92.189 59.795 151.63 60.653 90.976 1.33 151.63 60.651 151.63 60.651zm-272.94 201.14v30.854c35.775 7.318 60.653 22.841 60.653 40.936 0 25.113-47.534 45.49-106.14 45.49-58.609 0-106.14-20.377-106.14-45.495 0-18.09 24.875-33.612 60.649-40.931v-30.854c-55.081 9.535-90.978 36.249-90.978 71.784 0 44.631 56.121 75.816 136.47 75.816 80.344 0 136.47-31.186 136.47-75.816 2e-3 -35.535-35.898-62.249-90.979-71.784z" fill="#f33" stroke="#fff" stroke-width="16.368"/>
</svg>
