<svg width="26" height="26" version="1.1" viewBox="0 0 25.691 25.691" xmlns="http://www.w3.org/2000/svg">
 <path d="m24.839 14.991c1.614 1.665 1.204 4.715-3.591 5.736 0-2.101-3.689-2.916-8.379-2.916-5.028 0-8.594 0.773-8.594 2.974-4.811-0.992-5.087-4.37-3.156-6.059 2.35-2.056 3.309 1.362 11.714 1.362 7.658 0 9.429-3.755 12.006-1.097z" fill="#333"/>
 <path d="m12.847 14.891c3.799 0 8.005-1.887 8.005-1.887v-1.444c0-3.307-2.087-6.653-7.999-6.653-6.187 0-8.001 3.449-8.001 6.653v1.513s4.36 1.818 7.995 1.818z" fill="#333"/>
</svg>
