<svg width="26px" height="26px" version="1.1" viewBox="0 0 241.66 241.66" xmlns="http://www.w3.org/2000/svg">
 <path d="m208.63 133.58c10.345 0.472 19.121-7.677 19.574-18.203s-6.821-19.989-17.174-20.444l-68.73-8.63s14.323-23.958 14.323-59.455c0-23.663-16.905-26.847-26.847-26.847-7.821-3e-3 -9.927 15.151-9.927 15.151h-0.016c-1.771 9.717-4.077 18.203-12.09 33.827-8.97 17.512-21.186 15.869-35.448 31.467-2.517 2.747-5.899 7.281-9.195 12.86-0.269 0.295-0.52 0.708-0.763 1.289-0.294 0.692-0.646 1.172-0.956 1.812-0.546 1.003-1.083 2.006-1.611 3.059-8.827 8.827-22.579 7.925-28.435 7.925-11.746 0-17.898 6.825-17.898 17.898l-4e-3 81.828c0 12.423 5.083 16.613 17.903 16.613h17.898c9.011 0 16.067 5.166 26.848 8.949 14.767 5.116 36.821 8.956 74.811 8.956 6.644 0 27.251 0.025 27.251 0.025 6.309 0 11.377-2.882 15.034-6.362 1.392-1.323 2.844-3.245 3.465-6.995 0.101-0.581 0.209-3.017 0.193-3.346 0.477-10.728-6.008-14.612-9.682-15.835 0.1-0.034 0.034-0.126 0.234-0.118l11.663 0.522c10.353 0.472 20.572-6.986 20.572-19.669 0-10.517-8.525-17.934-18.844-18.439l6.184 0.287c10.352 0.455 19.103-7.694 19.582-18.22 0.451-10.525-7.57-19.432-17.915-19.905z" clip-rule="evenodd" fill="#ffc107" fill-rule="evenodd"/>
</svg>
