<svg width="100" height="94" version="1.1" viewBox="0 0 138.78 128.26" xmlns="http://www.w3.org/2000/svg">
 <g transform="matrix(1.261 0 0 1.5299 -147.32 -17.896)" fill="#fc0">
  <rect x="116.85" y="10.615" width="110.05" height="85.62" fill="#fff" stroke-width=".97987"/>
  <path d="m133.23 94.44c-9.1347-1.4191-15.035-4.7897-15.04-8.5919-9.8e-4 -1.6481 2.4317-4.1244 5.3334-5.4267 4.1368-1.8565 8.4809-2.7797 14.295-3.0379l5.3721-0.23872 22.523-8.4495c12.387-4.6472 23.48-8.8092 24.651-9.2488 2.0968-0.78762 2.1216-0.8169 1.6767-1.9957-0.33639-0.89491-0.32443-1.48 0.0614-2.3215 0.27987-0.61883 0.36244-1.2649 0.18106-1.4358-0.1798-0.17092-8.6049-3.6624-18.719-7.7591-10.115-4.0966-20.638-8.365-23.385-9.4852-4.9108-2.0024-5.0406-2.0303-7.6449-1.6532-5.0367 0.72934-12.471-0.37407-15.89-2.3582-6.4744-3.758 0.14914-8.6065 11.793-8.6344 2.6134-0.0013 5.8085 0.22385 7.0988 0.51035 2.3169 0.51496 2.5688 0.47049 19.423-3.4274 9.392-2.172 17.216-3.9492 17.385-3.9492 0.1676 0 0.31138-0.45131 0.31138-1.0031 0-2.3129 4.5472-4.0686 10.537-4.0686 10.764 0 14.454 5.2304 5.2228 7.4031-2.756 0.64875-7.3928 0.70782-9.914 0.12605-1.6509-0.38067-3.1773-0.0485-18.494 4.0276l-16.694 4.4425v1.2721c0 0.69958-0.22376 1.4951-0.49635 1.7679-0.31298 0.31116-0.34845 0.63471-0.10131 0.869 0.60335 0.57378 49.058 18.376 49.879 18.326 10.97-0.66749 19.3 0.88999 22.015 4.1161 3.7316 4.4345-4.0344 8.5602-16.212 8.6125l-4.873 0.01846-20.043 10.228c-14.398 7.3467-19.995 10.396-19.873 10.827 0.87951 3.1132-0.0723 5.0962-3.3546 6.9913-6.0107 3.4694-17.667 4.9981-27.024 3.5445z" fill="#fc0" stroke-width=".41325"/>
  <rect x="116.95" y="40.617" width="109.82" height="23.612" fill="#fff" stroke-width=".70181"/>
  <g transform="matrix(.699 0 0 .57614 44.309 30.949)" stroke-width="1.1443">
   <path d="m118.56 50.924q-1.1024 0-1.9293-0.79926-0.74414-0.7717-0.74414-1.9293v-21.525q0-1.1851 0.74414-1.9293 0.79927-0.79926 1.9293-0.79926h0.0276q5.2917 0 9.0124 3.4175 3.39 3.1144 3.39 8.2407 0 8.7919-3.39 11.906-3.7207 3.4175-9.0124 3.4175zm-7.7171-30.537q-1.0473 0.08268-1.7363 0.79926-0.71658 0.74414-0.71658 1.819v28.663q0 1.1024 0.68902 1.8741 0.71658 0.74414 1.819 0.79926 6.8351 0.33073 8.6541 0.33073 9.8668 0 15.407-4.8231 5.1263-4.5751 5.1263-12.072 0-8.3509-6.2563-13.229-5.9256-4.5751-15.186-4.5751-1.8466 0-7.7997 0.41341z" fill="#f33" style="font-feature-settings:normal;font-variant-caps:normal;font-variant-ligatures:normal;font-variant-numeric:normal"/>
   <path d="m154.4 52.248q0 5.8429-2.8939 9.5636-3.3624 4.2719-9.1778 3.1144-0.49609-0.11024-1.2402-0.44097-1.7639-0.85438-1.7639-2.7836 0-1.2127 0.79927-2.1222 0.82682-0.88194 2.0671-0.88194 1.0749 0 2.0671-0.52366 2.3978-1.13 2.3978-5.3743v-18.3q0-1.5985 1.13-2.7285 1.0749-1.1024 2.701-1.1024h0.11024q1.6261-0.02756 2.701 1.1024 1.1024 1.13 1.1024 2.7285zm-1.2127-25.301q-1.2127 1.2954-3.0041 1.2954-1.7363 0-3.0317-1.2954-1.2127-1.2127-1.2127-2.9766t1.2127-3.0041q1.2127-1.2678 3.0317-1.2678 1.7914 0 3.0041 1.2678 1.1851 1.2402 1.2127 3.0041-0.0276 1.6536-1.2127 2.9766z" fill="#f33" style="font-feature-settings:normal;font-variant-caps:normal;font-variant-ligatures:normal;font-variant-numeric:normal"/>
   <g fill="#333">
    <path d="m169.83 48.638v-8.7092l10.005 0.24805q1.2402 0.02756 2.2049-0.9095 0.90951-0.88194 0.90951-2.2049v-0.11024q0.0276-1.2954-0.88195-2.1497-0.99218-0.93706-2.2324-0.9095l-10.005 0.24805v-7.8273l10.611 0.49609q1.0749 0.05512 2.0119-0.68902 0.30317-0.24805 1.0749-1.7639l0.0276-0.11024q0.74415-1.5158-0.60633-3.1695-0.88195-1.1024-2.4529-1.1024h-14.028q-2.0946 0-3.4727 1.4056-1.4607 1.5158-1.4607 3.5278v24.915q0 2.0119 1.4607 3.4727t3.4727 1.4607h14.773q1.3229 0.02756 2.2324-0.90951 0.90951-0.88194 0.90951-2.2049v-0.11024q0-1.378-0.90951-2.2049-1.0198-0.9095-2.2324-0.9095z" style="font-feature-settings:normal;font-variant-caps:normal;font-variant-ligatures:normal;font-variant-numeric:normal"/>
    <path d="m196.9 40.838-8.4336-15.269q-1.0473-1.8741 0.19293-3.8309 1.1851-1.8741 3.3348-1.8741h0.44097q2.6734 0 3.6656 2.5356 2.5632 6.3665 5.2366 12.32l5.2917-12.32q1.0749-2.5356 3.6656-2.5356h0.0551q2.2324 0 3.4175 1.9293 1.1851 1.9568 0.11024 3.8034l-8.7092 14.938v10.115q0 2.0395-1.2127 3.2522-1.1851 1.2127-2.8663 1.2127h-0.11024q-1.6812 0-2.8663-1.2127-1.2127-1.1851-1.2127-3.2522z" style="font-feature-settings:normal;font-variant-caps:normal;font-variant-ligatures:normal;font-variant-numeric:normal"/>
    <path d="m225.86 29.51 6.0358 21.167q0.52365 1.819 2.0671 3.0317 1.571 1.1851 3.4726 1.1851h0.11024q1.8466 0 3.5278-1.1851 1.571-1.1576 2.0946-3.0317l5.9807-21.167-0.4961 21.773q-0.0276 1.4883 1.0749 2.5632 1.0749 1.0473 2.5907 1.0473h0.0551q1.9292 0 3.0868-1.1024 1.1024-1.0473 1.1024-2.508v-24.171q0-2.8388-2.0119-4.7956-1.9568-1.9568-4.7404-1.9568h-0.0827q-2.26 0-4.079 1.3505-1.7914 1.378-2.4254 3.5278l-5.6775 19.871-5.7326-19.926q-0.6339-2.1773-2.4254-3.4727-1.7914-1.3505-4.0239-1.3505h-0.0827q-2.8388 0-4.7956 1.9568t-1.9568 4.7956v24.171q0 1.4056 1.1024 2.508t2.508 1.1024h0.60633q1.5434 0 2.6183-1.1024 1.0473-1.0197 1.0198-2.508z" style="font-feature-settings:normal;font-variant-caps:normal;font-variant-ligatures:normal;font-variant-numeric:normal"/>
   </g>
  </g>
 </g>
</svg>
