<svg width="22" height="22" version="1.1" viewBox="0 0 135.62 135.47" xmlns="http://www.w3.org/2000/svg">
 <g transform="translate(-.35416 -161.71)">
  <rect x=".35416" y="161.71" width="59.34" height="135.47" fill="#333"/>
  <rect x="59.694" y="161.71" width="76.284" height="135.47" ry="0" fill="#fff"/>
 </g>
 <g transform="matrix(1.3152 0 0 1.3152 -.15023 -2.2053)">
  <path d="m57.224 96.705c-0.80953-0.59426-4.0438-1.9969-2.4782-3.1238 10.228-10.659 19.703-22.53 25.107-36.414 3.2203-7.9355 4.1372-17.003 1.3064-25.202-3.6816-11.402-14.019-20.233-25.826-22.197 0.45922-0.31909 3.7879-0.39096 5.2894-0.18885 8.9085 0.66262 17.397 5.0704 23.029 12.011 3.907 4.6996 6.2131 10.498 7.2664 16.475 0.06789 4.2583 0.3504 8.6076-0.86793 12.754-2.7937 11.482-9.4204 21.561-16.568 30.793-4.2583 5.2265-8.6503 10.448-13.77 14.839-0.79155 0.33294-1.6582 0.70155-2.4873 0.25368z" fill="#333"/>
  <path d="m44.118 96.358c-3.6037-1.9992-6.0972-5.5826-9.0666-8.3977-8.9796-9.9278-17.12-21.118-21.083-34.047-2.7106-9.0169-2.4674-19.249 2.376-27.511 5.8531-10.917 18.348-17.826 30.705-16.869 14.576 0.64241 27.767 12.302 30.162 26.695 2.1854 10.846-2.0287 21.719-7.3579 30.995-6.0771 10.529-13.911 20.006-22.66 28.42-0.83138 0.63056-2.0386 1.2374-3.0751 0.71417zm3.4192-38.492c8.2619-1.1807 14.503-9.6538 13.059-17.914-0.98611-8.7017-10.28-15.21-18.817-13.16-7.3807 1.4057-13.195 8.703-12.438 16.268-0.0269 9.1617 9.2981 16.444 18.196 14.806z" fill="#fc0"/>
 </g>
</svg>
