<svg width="26" height="26" version="1.1" viewBox="0 0 135.62 135.47" xmlns="http://www.w3.org/2000/svg">
 <path d="m67.898 134.66a67.168 66.801 0 0 1-67.235-66.705 67.168 66.801 0 0 1 67.042-66.897l0.12636 66.801z" fill="#333" stroke-width="5.4283"/>
 <g transform="matrix(1.3152 0 0 1.3152 8.6218 -.79795)">
  <path d="m44.118 96.358c-3.6037-1.9992-6.0972-5.5826-9.0666-8.3977-8.9796-9.9278-17.12-21.118-21.083-34.047-2.7106-9.0169-2.4674-19.249 2.376-27.511 5.8531-10.917 18.348-17.826 30.705-16.869 14.576 0.64241 27.767 12.302 30.162 26.695 2.1854 10.846-2.0287 21.719-7.3579 30.995-6.0771 10.529-13.911 20.006-22.66 28.42-0.83138 0.63056-2.0386 1.2374-3.0751 0.71417zm3.4192-38.492c8.2619-1.1807 14.503-9.6538 13.059-17.914-0.98611-8.7017-10.28-15.21-18.817-13.16-7.3807 1.4057-13.195 8.703-12.438 16.268-0.0269 9.1617 9.2981 16.444 18.196 14.806z" fill="#fc0"/>
 </g>
 <path d="m79.635 128.22c-1.0843-0.79613-5.4166-2.6748-3.3195-4.1844 13.7-14.278 26.392-30.179 33.63-48.776 4.3135-10.629 5.5417-22.775 1.7499-33.758-4.9314-15.273-18.778-27.102-34.593-29.732 0.61512-0.42738 5.0738-0.52365 7.085-0.25294 11.933 0.88755 23.303 6.7917 30.847 16.089 5.2334 6.295 8.3223 14.062 9.7332 22.068 0.091 5.7039 0.46933 11.53-1.1626 17.084-3.7421 15.38-12.618 28.881-22.193 41.247-5.7039 7.0008-11.587 13.995-18.445 19.876-1.0603 0.44614-2.2211 0.93997-3.3317 0.34007z" fill="#333" stroke-width="1.3395"/>
</svg>
