<svg width="128" height="128" version="1.1" viewBox="0 0 533.33 533.33" xmlns="http://www.w3.org/2000/svg">
 <path d="m266.67 0c-145.18 0-263.26 116.02-266.59 260.4 3.084-125.97 98.871-227.07 216.59-227.07 119.66 0 216.67 104.47 216.67 233.33 0 27.614 22.386 50 50 50s50-22.386 50-50c-1e-3 -147.28-119.39-266.67-266.67-266.67zm0 533.33c145.18 0 263.26-116.02 266.59-260.4-3.084 125.97-98.871 227.07-216.59 227.07-119.66 0-216.67-104.47-216.67-233.33 0-27.615-22.386-50-50-50s-50 22.386-50 50c0 147.28 119.39 266.67 266.67 266.67z" fill="#ccc"/>
</svg>
