<?xml version="1.0" encoding="UTF-8"?>
<svg width="61" height="60" version="1.1" viewBox="0 0 61.584 60" xml:space="preserve" xmlns="http://www.w3.org/2000/svg">
<g transform="matrix(.11409 0 0 .11409 .7921 .7921)" fill="#f00" stroke="#fff" stroke-width="13.885">
	<path d="m192 416h-32v-416h32zm192-320 128-96h-288v192h288zm-160 227.38v32.531c55.812 8.844 96 32.281 96 60.094 0 35.344-64.469 64-144 64s-144-28.656-144-64c0-27.812 40.188-51.25 96-60.094v-32.531c-69.125 9.844-128 41.25-128 92.625 0 63.031 88.563 96 176 96 87.438 0 176-32.969 176-96 0-51.375-58.875-82.781-128-92.625z" fill="#f00" stroke="#fff" stroke-width="13.885"/>
</g>
</svg>
