<?xml version="1.0" encoding="UTF-8"?>
<svg version="1.1" viewBox="0 0 17.959 16" xmlns="http://www.w3.org/2000/svg">
 <g transform="matrix(.035088 0 0 .035088 4.1404 .98276)" fill="#540">
  <path d="m-110.44 425.62c-2.149-1.3008-4.7176-3.886-5.7081-5.7449-1.7182-3.2246-1.8028-13.314-1.8428-219.67-0.0416-214.84-0.0284-216.32 1.9715-220.24 1.296-2.5403 3.4199-4.6642 5.9602-5.9602 3.8881-1.9836 5.6626-2.0135 119.53-2.0135 112.29 0 115.69 0.05497 119.29 1.9327 5.5573 2.895 100.77 98.675 102.68 103.29 1.3159 3.187 1.5351 11.505 1.5351 58.25v54.532h36l2e-3 -17.25c1e-3 -14.447 0.28571-17.807 1.75-20.679 3.2599-6.393 10.299-9.5487 17.377-7.7906 2.8241 0.70141 14.574 10.878 53 45.902 27.154 24.75 50.14 46.422 51.08 48.159 2.3531 4.3515 2.178 9.4654-0.47453 13.855-2.2931 3.7949-94.689 88.585-100.18 91.934-4.3247 2.6373-11.379 2.457-15.656-0.40005-6.1229-4.0904-6.8946-7.0533-6.8963-26.48l-2e-3 -17.25h-36v57.684c0 56.201-0.053 57.794-2.0601 61.94-1.4957 3.0897-3.226 4.82-6.3157 6.3157-4.2439 2.0544-4.7047 2.0601-167.69 2.055l-163.43-5e-3zm313.41-76.625v-49h-31.032c-34.674 0-35.705-0.16682-40.586-6.566l-2.8818-3.7783v-44.755c0-43.642 0.0513-44.823 2.0618-47.516 1.134-1.5188 3.3037-3.6894 4.8216-4.8233 2.6342-1.968 4.2351-2.075 35.188-2.3511l32.428-0.28932v-91.84l-42.928-0.29047c-41.562-0.28123-43.016-0.35609-45.688-2.3523-1.5181-1.134-3.688-3.304-4.822-4.8222-1.9965-2.673-2.0707-4.1188-2.3426-45.688l-0.28086-42.928h-194.94v396h291zm-252.58-16.019c-8.2028-4.0604-10.764-14.481-5.4082-22.002 4.2798-6.0104 3.9594-5.9784 59.702-5.9766 46.371 1e-3 51.08 0.15344 54.211 1.75 10.763 5.4882 10.51 20.953-0.42874 26.248-3.9626 1.9183-6.1738 2.0001-54.066 1.9993-48.067-7.6e-4 -50.087-0.0763-54.011-2.0186zm0-60c-10.915-5.4031-10.941-21.186-0.04228-26.357 3.0164-1.4314 9.4142-1.6233 54.119-1.6233 44.704 0 51.102 0.1919 54.119 1.6233 10.889 5.167 10.949 21.019 0.0992 26.271-4.2438 2.0544-5.5589 2.1054-54.283 2.1046-48.067-7.6e-4 -50.087-0.0763-54.011-2.0186zm-0.83091-60.356c-9.9597-6.0287-9.9536-19.645 0.0113-25.358 3.8919-2.2313 3.9478-2.2336 54.896-2.2336 50.948 0 51.004 2e-3 54.896 2.2336 10.005 5.7359 10.005 19.731 0 25.467-3.8912 2.2308-3.9578 2.2336-54.896 2.2449l-51 0.0113zm0.62538-59.288c-10.792-5.3193-10.624-21.058 0.28163-26.337 3.9646-1.9192 6.1504-1.9992 54.066-1.9781 46.923 0.0206 50.187 0.13672 54.126 1.9248 10.833 4.9184 10.788 21.276-0.0728 26.43-3.0189 1.4326-9.3949 1.6206-54.27 1.6005-44.792-0.0201-51.24-0.21545-54.131-1.6403zm0-60c-10.792-5.3193-10.624-21.058 0.28163-26.337 3.9624-1.9182 6.1747-2.0001 54-2.0001 47.825 0 50.038 0.0819 54 2.0001 10.939 5.2956 11.192 20.76 0.42874 26.248-3.1335 1.5978-7.8233 1.7466-54.429 1.7272-44.933-0.0187-51.39-0.21364-54.282-1.6388zm230.78-25.6c0-0.14219-9.9-10.151-22-22.241l-22-21.983v44.483h22c12.1 0 22-0.11634 22-0.25852z" fill="#540"/>
 </g>
</svg>
