<svg width="16" height="16" version="1.1" viewBox="0 0 512 512" xmlns="http://www.w3.org/2000/svg">
 <g fill="#212121">
  <path d="m483.51 130.13-145.07-128c-1.553-1.374-3.566-2.133-5.64-2.133h-247.47c-4.719 0-8.533 3.814-8.533 8.533v187.73h-42.667c-4.719 0-8.533 3.814-8.533 8.533v102.4c0 4.719 3.814 8.533 8.533 8.533h42.667v187.73c0 4.719 3.814 8.533 8.533 8.533h392.53c4.719 0 8.533-3.814 8.533-8.533v-366.93c1e-3 -2.449-1.049-4.778-2.892-6.4zm-142.17-102.69 113.96 100.56h-113.96v-100.56zm-298.67 271.22v-85.333h128c4.719 0 8.533-3.814 8.533-8.533v-36.446l74.155 87.645-74.155 87.646v-36.446c0-4.719-3.814-8.533-8.533-8.533h-128zm426.67 196.27h-375.47v-179.2h68.267v51.2c0 3.584 2.236 6.784 5.598 8.013 0.964 0.35 1.954 0.521 2.935 0.521 2.458 0 4.855-1.067 6.519-3.021l93.867-110.93c2.688-3.174 2.688-7.842 0-11.017l-93.867-110.93c-2.321-2.739-6.101-3.729-9.446-2.509-3.371 1.229-5.606 4.429-5.606 8.013v51.2h-68.267v-179.2h230.4v119.47c0 4.719 3.814 8.533 8.533 8.533h136.53v349.87z"/>
  <path d="m177.29 328.41c-0.0178-21.979-0.29234-23.576-4.4852-26.094-2.3541-1.4136-3.4516-1.4353-72.967-1.4379l-70.577-2e-3v-91.029l70.577-2e-3c68.611-2e-3 70.642-0.0411 72.878-1.3843 4.0855-2.4536 4.1666-2.8997 4.5587-25.076l0.36102-20.418 39.35 45.82c21.643 25.201 39.35 46.147 39.35 46.548s-17.22 20.758-38.267 45.238c-21.047 24.481-38.828 45.205-39.515 46.053-1.1897 1.4717-1.2482 0.62802-1.2636-18.214z" stroke-width=".71657"/>
 </g>
</svg>
