<?xml version="1.0" encoding="UTF-8"?>
<svg width="72" height="80" version="1.1" viewBox="0 0 21.6 24" xmlns="http://www.w3.org/2000/svg">
 <circle cx="10.71" cy="7.14" r="3.6" fill="#fff" stroke-opacity="0"/>
 <g transform="matrix(1.2,0,0,1.2,-3.6,-2.4)">
  <path d="m18 16.016c1.245 0.529 2 1.223 2 1.984 0 1.657-3.582 3-8 3s-8-1.343-8-3c0-0.76 0.755-1.456 2-1.984" fill="none" stroke="#c8ab37" stroke-linecap="round" stroke-linejoin="round" stroke-width="2"/>
  <path d="m11.262 17.675 0.738-0.675zm1.476 0 5e-3 -5e-3 0.012-0.014 0.045-0.05 0.166-0.186a38.19 38.19 0 0 0 2.348-2.957c0.642-0.9 1.3-1.92 1.801-2.933 0.49-0.99 0.885-2.079 0.885-3.086 0-3.573-2.618-6.444-6-6.444s-6 2.87-6 6.444c0 1.007 0.395 2.096 0.885 3.086 0.501 1.013 1.16 2.033 1.8 2.933a38.153 38.153 0 0 0 2.515 3.143l0.045 0.05 0.012 0.014 5e-3 5e-3a1 1 0 0 0 1.476 0zm-0.738-0.675 0.738 0.674zm0-11a2 2 0 1 0 0 4 2 2 0 0 0 0-4z" clip-rule="evenodd" fill="#f00" fill-rule="evenodd"/>
 </g>
</svg>
