<svg version="1.1" viewBox="0 0 44.953 60" xml:space="preserve" xmlns="http://www.w3.org/2000/svg">
<path class="st0" d="m3.7221 60h37.51c2.1005 0 3.721-1.6804 3.721-3.721v-37.57c0-2.1005-1.6804-3.721-3.721-3.721h-12.003l-5.7015-13.683c-0.60016-1.7404-1.5004-1.7404-2.1005 0l-5.6415 13.623h-12.003c-2.1005 0-3.781 1.6804-3.781 3.721v37.63c-0.060016 2.0405 1.6204 3.721 3.721 3.721z" fill="#f60" stroke-width=".60016"/><g transform="matrix(.12366 0 0 .12366 -7.1873 -3.6484)" fill="#fff"><path transform="scale(8.0868)" d="m22.963 24.949-2.4219 4.1836 1.5293 2e-3v8.2363l-4.6953-0.01172 2e-3 -1.4082-4.1895 2.4121 4.1816 2.4219 2e-3 -1.5195 4.6992 0.01172v14.545h-1.4062l2.4219 4.1836 2.4102-4.1875h-1.5195v-14.535l18.076 0.04687-0.0039 1.3984 4.1953-2.4023-4.1777-2.4316-0.0059 1.5273-18.084-0.04492v-8.2402l1.3984 2e-3 -2.4121-4.1895z" stroke-width=".12366"/><g style="font-feature-settings:normal;font-variant-caps:normal;font-variant-ligatures:normal;font-variant-numeric:normal" aria-label="x"><path d="m291.66 261.99-16.833-22.792h15.792l9.5416 13.833 9.6666-13.833h15.792l-16.833 22.708 17.667 23.958h-15.792l-10.5-14.75-10.375 14.75h-15.792z" fill="#fff"/></g><g style="font-feature-settings:normal;font-variant-caps:normal;font-variant-ligatures:normal;font-variant-numeric:normal" aria-label="y"><path d="m213.2 359.22h14.917l12.542 31.667 10.667-31.667h14.917l-19.625 51.083q-2.9583 7.7916-6.9166 10.875-3.9166 3.125-10.375 3.125h-8.625v-9.7916h4.6666q3.7917 0 5.5-1.2083 1.75-1.2083 2.7083-4.3333l0.41666-1.2917z" fill="#fff"/></g></g>
</svg>
