<svg version="1.1" viewBox="0 0 44.953 60" xml:space="preserve" xmlns="http://www.w3.org/2000/svg">

<g transform="translate(1e-4)"><path class="st0" d="m41.231 0h-37.51c-2.1005 0-3.721 1.6804-3.721 3.721v37.57c0 2.1005 1.6804 3.721 3.721 3.721h12.003l5.7015 13.683c0.60016 1.7404 1.5004 1.7404 2.1005 0l5.6415-13.623h12.003c2.1005 0 3.781-1.6804 3.781-3.721v-37.63c0.060016-2.0405-1.6204-3.721-3.721-3.721z" fill="#0055d4" stroke-width=".60016"/><path d="m22.476 17.1a5.0001 5.0001 0 0 0-5.0001 5.0001 5.0001 5.0001 0 0 0 5.0001 5.0001 5.0001 5.0001 0 0 0 5.0001-5.0001 5.0001 5.0001 0 0 0-5.0001-5.0001m11.667 16.667h-6.6668v3.3334h6.6668a3.3334 3.3334 0 0 0 3.3334-3.3334v-6.6668h-3.3334m0-20h-6.6668v3.3334h6.6668v6.6668h3.3334v-6.6668a3.3334 3.3334 0 0 0-3.3334-3.3334m-23.333 3.3334h6.6668v-3.3334h-6.6668a3.3334 3.3334 0 0 0-3.3333 3.3334v6.6668h3.3333m0 10h-3.3333v6.6668a3.3334 3.3334 0 0 0 3.3333 3.3334h6.6668v-3.3334h-6.6668z" fill="#fff" stroke-width="1.6667"/></g></svg>
