<svg xmlns="http://www.w3.org/2000/svg" width="184.703125" height="35" viewBox="0 0 184.703125 35" class="badge-svg" data-v-3c87b7b4=""><defs data-v-3c87b7b4=""><!----><!----><!----></defs><path data-v-3c87b7b4="" d="M 10 0 L 71.03125 0 L 71.03125 35 L 10 35 Q 0 35 0 25 L 0 10 Q 0 0 10 0 Z" fill="#424242"/><!--[--><path data-v-3c87b7b4="" d="M 71.03125 0 L 174.703125 0 Q 184.703125 0 184.703125 10 L 184.703125 25 Q 184.703125 35 174.703125 35 L 71.03125 35 Z" fill="#c62828"/><!--]--><g data-v-3c87b7b4="" transform="translate(10, 9.5) scale(0.6666666666666666)"><path data-v-3c87b7b4="" d="M7.775 0a1.8 1.8 0 0 0-1.273.527L.528 6.503A1.8 1.8 0 0 0 0 7.775v8.45c0 .478.19.936.528 1.274l5.974 5.974A1.8 1.8 0 0 0 7.775 24h8.45a1.8 1.8 0 0 0 1.273-.527l5.975-5.974A1.8 1.8 0 0 0 24 16.225v-8.45a1.8 1.8 0 0 0-.527-1.272L17.498.527A1.8 1.8 0 0 0 16.225 0zm4.427 3c1.02 0 .958 1.108.958 1.108v6.784s-.009.218.16.218c.188 0 .175-.226.175-.226l-.002-5.63s-.05-.986.959-.986c1.01 0 .97.983.97.983v7.621s.014.158.141.158c.127 0 .944-2.122.944-2.122s.451-1.497 2.576-1.1c.038.008-.167.688-.167.688l-2.283 6.556S15.69 20.7 11.714 20.7c-5.044 0-4.808-5.407-4.814-5.405V7.562s-.016-.99.897-.99c.858 0 .849.99.849.99l.007 3.583s-.004.172.167.172c.16 0 .141-.172.141-.172l.01-5.926s-.055-1.162.966-1.162c1.04 0 .983 1.142.983 1.142v5.611s-.005.204.152.204c.168 0 .154-.206.154-.206l.01-6.693S11.18 3 12.202 3Z" fill="#FFFFFF"/></g><text x="45.515625" y="17.5" dy="0.35em" font-size="12" font-family="Roboto, sans-serif" fill="#FFFFFF" text-anchor="middle" letter-spacing="2" font-weight="600" font-style="normal" text-decoration="none" fill-opacity="1" font-variant="normal" style="text-transform:uppercase;" data-v-3c87b7b4="">&gt;&gt;&gt;</text><!----><text x="127.8671875" y="17.5" dy="0.35em" font-size="12" font-family="Montserrat, sans-serif" fill="#FFFFFF" text-anchor="middle" font-weight="900" letter-spacing="2" font-style="normal" text-decoration="none" fill-opacity="1" font-variant="normal" style="text-transform:uppercase;" data-v-3c87b7b4="">ATTENTION</text><!----></svg>