<?xml version="1.0" encoding="UTF-8"?>
<svg width="256.29" height="80" version="1.1" viewBox="0 0 355.69 109.16" xmlns="http://www.w3.org/2000/svg">
 <g transform="matrix(.99787 0 0 .99787 -19.86 -39.954)">
  <g transform="matrix(3.1016 0 0 3.1016 -41.828 -82.182)">
   <path d="m28.17 63.576q-0.84844 0-1.4849-0.61513-0.57271-0.59392-0.57271-1.4849v-16.566q0-0.91209 0.57271-1.4849 0.61514-0.61513 1.4849-0.61513h0.02124q4.0726 0 6.9362 2.6302 2.6091 2.3969 2.6091 6.3423 0 6.7665-2.6091 9.1628-2.8636 2.6302-6.9362 2.6302zm-5.9393-23.502q-0.80603 0.06363-1.3363 0.61513-0.5515 0.57271-0.5515 1.3999v22.06q0 0.84844 0.53029 1.4424 0.5515 0.57271 1.3999 0.61513 5.2605 0.25454 6.6605 0.25454 7.5938 0 11.857-3.712 3.9453-3.5211 3.9453-9.2912 0-6.4271-4.815-10.182-4.5605-3.5211-11.688-3.5211-1.4212 0-6.0029 0.31818z" fill="#d40000" stroke="#fff" stroke-width=".88066" style="font-feature-settings:normal;font-variant-caps:normal;font-variant-ligatures:normal;font-variant-numeric:normal"/>
   <path d="m55.753 64.595q0 4.4968-2.2272 7.3604-2.5878 3.2878-7.0635 2.3969-0.3818-0.08484-0.95453-0.33938-1.3576-0.65755-1.3576-2.1424 0-0.93331 0.61514-1.6333 0.63634-0.67876 1.5909-0.67876 0.82727 0 1.5909-0.40302 1.8454-0.86967 1.8454-4.1362v-14.084q0-1.2303 0.86968-2.0999 0.82727-0.84844 2.0788-0.84844h0.08484q1.2515-0.02121 2.0788 0.84844 0.84844 0.86967 0.84844 2.0999zm-0.93331-19.472q-0.93331 0.99696-2.312 0.99696-1.3363 0-2.3333-0.99696-0.93331-0.93331-0.93331-2.2909 0-1.3576 0.93331-2.312 0.93331-0.97574 2.3333-0.97574 1.3787 0 2.312 0.97574 0.91209 0.95453 0.93331 2.312-0.02124 1.2726-0.93331 2.2909z" fill="#d40000" stroke="#fff" stroke-width=".88066" style="font-feature-settings:normal;font-variant-caps:normal;font-variant-ligatures:normal;font-variant-numeric:normal"/>
   <g transform="matrix(.87315 0 0 .87315 16.769 -1.3326)" fill="#1a1a1a" stroke-width="1.0086">
    <g stroke="#fff">
     <path d="m58.248 72.324v-7.6766l8.8188 0.21864q1.0932 0.02429 1.9435-0.80167 0.80168-0.77737 0.80168-1.9435v-0.09717q0.02433-1.1418-0.77738-1.8948-0.87455-0.82596-1.9677-0.80167l-8.8188 0.21864v-6.8993l9.3529 0.43727q0.94746 0.04859 1.7734-0.60733 0.26722-0.21864 0.94746-1.5548l0.02433-0.09717q0.65592-1.3361-0.53444-2.7937-0.77738-0.9717-2.1621-0.9717h-12.365q-1.8463 0-3.061 1.2389-1.2875 1.3361-1.2875 3.1095v21.961q0 1.7734 1.2875 3.061t3.061 1.2875h13.021q1.1661 0.02429 1.9677-0.80168 0.80168-0.77738 0.80168-1.9435v-0.09717q0-1.2146-0.80168-1.9435-0.89889-0.80167-1.9677-0.80167z" style="font-feature-settings:normal;font-variant-caps:normal;font-variant-ligatures:normal;font-variant-numeric:normal"/>
     <path d="m82.109 65.449-7.4337-13.459q-0.92313-1.6519 0.17006-3.3767 1.0446-1.6519 2.9394-1.6519h0.38869q2.3564 0 3.231 2.235 2.2593 5.6117 4.6157 10.859l4.6643-10.859q0.94746-2.235 3.231-2.235h0.04857q1.9677 0 3.0123 1.7006 1.0446 1.7248 0.09717 3.3525l-7.6766 13.167v8.9157q0 1.7977-1.0689 2.8666-1.0446 1.0689-2.5265 1.0689h-0.09717q-1.4819 0-2.5265-1.0689-1.0689-1.0446-1.0689-2.8666z" style="font-feature-settings:normal;font-variant-caps:normal;font-variant-ligatures:normal;font-variant-numeric:normal"/>
     <path d="m107.64 55.464 5.3202 18.657q0.46157 1.6033 1.822 2.6723 1.3847 1.0446 3.0609 1.0446h0.0972q1.6277 0 3.1095-1.0446 1.3847-1.0204 1.8463-2.6723l5.2716-18.657-0.43728 19.192q-0.0243 1.3118 0.94746 2.2593 0.94746 0.92313 2.2835 0.92313h0.0486q1.7005 0 2.7208-0.9717 0.9717-0.92313 0.9717-2.2106v-21.305q0-2.5022-1.7734-4.227-1.7248-1.7248-4.1784-1.7248h-0.0729q-1.992 0-3.5954 1.1904-1.579 1.2146-2.1378 3.1095l-5.0044 17.515-5.0529-17.564q-0.55874-1.9192-2.1378-3.061-1.579-1.1904-3.5468-1.1904h-0.0729q-2.5022 0-4.227 1.7248t-1.7248 4.227v21.305q0 1.2389 0.9717 2.2106t2.2106 0.9717h0.53444q1.3604 0 2.3079-0.9717 0.92313-0.8988 0.89889-2.2106z" style="font-feature-settings:normal;font-variant-caps:normal;font-variant-ligatures:normal;font-variant-numeric:normal"/>
    </g>
   </g>
  </g>
 </g>
</svg>
