<svg width="399.97" height="400" version="1.1" viewBox="0 0 105.83 105.83" xmlns="http://www.w3.org/2000/svg">
 <g transform="translate(-14.901 -177.01)">
  <path d="m14.901 229.92v-52.917h105.83l-0.014 105.83h-105.81zm97.732 21.019c0.10225-14.051 0.1025-34.928 5.3e-4 -46.392l-0.18536-20.844-13.892-0.17503c-17.54-0.22099-34.269-0.22499-35.848-9e-3l-1.2145 0.16646-0.07925 1.2106-0.07925 1.2106-3.4396 0.56817c-4.7143 0.77874-7.1707 1.5071-10.583 3.1381-3.5047 1.675-6.3691 3.7888-9.4113 6.9451-4.5404 4.7107-7.4127 10.156-8.567 16.24-0.53777 2.8349-0.54668 9.7194-0.01652 12.76 1.9694 11.294 9.4868 24.758 20.971 37.561 3.624 4.0403 8.7979 9.0321 10.178 9.8198 0.95317 0.54407 0.9968 0.6296 0.99875 1.958l0.0021 1.3891h50.979zm-39.523 22.375c-0.50932-0.27687-1.2775-0.79156-1.7071-1.1438-0.74373-0.60973-0.76129-0.67057-0.3671-1.2722 0.2277-0.34751 1.5467-1.8844 2.931-3.4154 13.299-14.708 21.104-27.556 24.184-39.812 0.89188-3.5487 1.1418-10.154 0.52603-13.902-1.9834-12.072-10.952-22.15-23.22-26.092-1.2183-0.39149-2.3342-0.8253-2.4797-0.96401-0.32815-0.3128 5.5331-0.0288 7.7271 0.37439 6.3051 1.1587 12.84 4.769 17.61 9.729 3.4982 3.6374 5.7961 7.5984 7.8015 13.448l0.97834 2.8538 0.53824 5.8656c-0.70032 7.1116-0.70981 7.6903-2.4242 12.862-3.851 11.617-13.993 26.688-25.83 38.382-3.7943 3.7486-4.4528 4.0726-6.2691 3.0853zm-11.996-5.7571c-0.09558-3.1651-0.17407-11.797-0.17443-19.182l-6.48e-4 -13.428h-0.74741c-0.8991 0-3.8291-0.97173-6.0054-1.9916-2.3217-1.0881-5.5676-4.4156-6.8467-7.0189-1.8653-3.7963-1.9238-9.3907-0.13818-13.209 1.0893-2.329 2.643-4.2736 4.5749-5.7258 2.5661-1.929 4.4292-2.7126 8.6711-3.6469l0.69897-0.15396-0.14297-8.3172-0.14297-8.3172 0.92149-0.17287c1.2233-0.22949 6.5947 0.74338 9.5296 1.726 6.0256 2.0174 11.381 5.669 15.055 10.264 3.2191 4.027 5.009 7.5798 6.3921 12.687 0.80628 2.9775 0.84097 3.3127 0.84142 8.1326 5.29e-4 4.2252-0.09283 5.443-0.58444 7.6347-2.887 12.87-11.19 26.645-24.005 39.825-3.2903 3.3839-6.9623 6.6478-7.4789 6.6478-0.13516 0-0.32047-2.5571-0.41703-5.7547zm3.4351-33.165c5.4372-1.6654 9.5909-5.3232 11.249-9.9058 0.80509-2.2253 0.99866-7.3343 0.36148-9.5402-1.0932-3.7847-3.819-7.3683-7.0888-9.3197-1.6658-0.99414-4.4783-2.0034-6.3457-2.277l-1.2568-0.18415 0.0024 14.502c0.0013 7.9762 0.07738 15.127 0.16914 15.891 0.19577 1.6298 0.25464 1.6467 2.9095 0.83349z" stroke-width=".26458"/>
 </g>
</svg>
