<svg width="200" height="100" version="1.1" viewBox="0 0 270.93 135.47" xmlns="http://www.w3.org/2000/svg">
 <g transform="translate(-.35416 -161.71)">
  <rect x=".35416" y="161.71" width="59.34" height="135.47" fill="#333"/>
  <rect x="59.694" y="161.71" width="211.4" height="135.47" ry="0" fill="#fff"/>
 </g>
 <g transform="matrix(1.3152 0 0 1.3152 -.15023 -2.2053)">
  <path d="m57.224 96.705c-0.80953-0.59426-4.0438-1.9969-2.4782-3.1238 10.228-10.659 19.703-22.53 25.107-36.414 3.2203-7.9355 4.1372-17.003 1.3064-25.202-3.6816-11.402-14.019-20.233-25.826-22.197 0.45922-0.31909 3.7879-0.39096 5.2894-0.18885 8.9085 0.66262 17.397 5.0704 23.029 12.011 3.907 4.6996 6.2131 10.498 7.2664 16.475 0.06789 4.2583 0.3504 8.6076-0.86793 12.754-2.7937 11.482-9.4204 21.561-16.568 30.793-4.2583 5.2265-8.6503 10.448-13.77 14.839-0.79155 0.33294-1.6582 0.70155-2.4873 0.25368z" fill="#333"/>
  <path d="m44.118 96.358c-3.6037-1.9992-6.0972-5.5826-9.0666-8.3977-8.9796-9.9278-17.12-21.118-21.083-34.047-2.7106-9.0169-2.4674-19.249 2.376-27.511 5.8531-10.917 18.348-17.826 30.705-16.869 14.576 0.64241 27.767 12.302 30.162 26.695 2.1854 10.846-2.0287 21.719-7.3579 30.995-6.0771 10.529-13.911 20.006-22.66 28.42-0.83138 0.63056-2.0386 1.2374-3.0751 0.71417zm3.4192-38.492c8.2619-1.1807 14.503-9.6538 13.059-17.914-0.98611-8.7017-10.28-15.21-18.817-13.16-7.3807 1.4057-13.195 8.703-12.438 16.268-0.0269 9.1617 9.2981 16.444 18.196 14.806z" fill="#fc0"/>
 </g>
 <g transform="matrix(1.261 0 0 1.5299 -18.026 -13.622)" fill="#fc0">
  <path d="m132.06 94.888c-9.3226-1.4483-15.344-4.8882-15.349-8.7687-1e-3 -1.682 2.4817-4.2093 5.4431-5.5384 4.2219-1.8947 8.6554-2.8369 14.589-3.1004l5.4826-0.24363 22.986-8.6233c12.642-4.7428 23.963-8.9904 25.158-9.4391 2.1399-0.80382 2.1652-0.83371 1.7112-2.0368-0.34331-0.91332-0.33111-1.5104 0.0627-2.3693 0.28563-0.63156 0.3699-1.2909 0.18479-1.4653-0.18351-0.17444-8.7819-3.7378-19.104-7.9187-10.323-4.1809-21.063-8.5371-23.866-9.6804-5.0118-2.0436-5.1443-2.0721-7.8022-1.6872-5.1403 0.74435-12.728-0.38177-16.217-2.4067-6.6076-3.8353 0.15221-8.7836 12.036-8.812 2.6672-0.0013 5.928 0.22846 7.2449 0.52085 2.3646 0.52556 2.6216 0.48017 19.823-3.4979 9.5852-2.2167 17.57-4.0304 17.743-4.0304 0.17105 0 0.31779-0.4606 0.31779-1.0237 0-2.3605 4.6408-4.1523 10.754-4.1523 10.985 0 14.751 5.338 5.3303 7.5554-2.8127 0.6621-7.5449 0.72238-10.118 0.12864-1.6849-0.3885-3.2427-0.0495-18.874 4.1105l-17.037 4.5339v1.2983c0 0.71397-0.22836 1.5259-0.50656 1.8043-0.31942 0.31756-0.35562 0.64777-0.10339 0.88688 0.61577 0.58558 50.067 18.754 50.905 18.703 11.196-0.68122 19.697 0.9083 22.468 4.2008 3.8084 4.5257-4.1174 8.7363-16.546 8.7897l-4.9733 0.01884-20.455 10.438c-14.694 7.4979-20.406 10.61-20.282 11.05 0.89761 3.1773-0.0738 5.2011-3.4236 7.1351-6.1344 3.5408-18.03 5.1009-27.58 3.6174z" fill="#fc0" stroke-width=".42175"/>
 </g>
 <rect x="122.89" y="39.489" width="145.74" height="36.124" fill="#fff"/>
 <g transform="matrix(.88144 0 0 .88144 35.794 24.698)" stroke-width="1.1443">
  <path d="m118.56 50.924q-1.1024 0-1.9293-0.79926-0.74414-0.7717-0.74414-1.9293v-21.525q0-1.1851 0.74414-1.9293 0.79927-0.79926 1.9293-0.79926h0.0276q5.2917 0 9.0124 3.4175 3.39 3.1144 3.39 8.2407 0 8.7919-3.39 11.906-3.7207 3.4175-9.0124 3.4175zm-7.7171-30.537q-1.0473 0.08268-1.7363 0.79926-0.71658 0.74414-0.71658 1.819v28.663q0 1.1024 0.68902 1.8741 0.71658 0.74414 1.819 0.79926 6.8351 0.33073 8.6541 0.33073 9.8668 0 15.407-4.8231 5.1263-4.5751 5.1263-12.072 0-8.3509-6.2563-13.229-5.9256-4.5751-15.186-4.5751-1.8466 0-7.7997 0.41341z" fill="#f33" style="font-feature-settings:normal;font-variant-caps:normal;font-variant-ligatures:normal;font-variant-numeric:normal"/>
  <path d="m154.4 52.248q0 5.8429-2.8939 9.5636-3.3624 4.2719-9.1778 3.1144-0.49609-0.11024-1.2402-0.44097-1.7639-0.85438-1.7639-2.7836 0-1.2127 0.79927-2.1222 0.82682-0.88194 2.0671-0.88194 1.0749 0 2.0671-0.52366 2.3978-1.13 2.3978-5.3743v-18.3q0-1.5985 1.13-2.7285 1.0749-1.1024 2.701-1.1024h0.11024q1.6261-0.02756 2.701 1.1024 1.1024 1.13 1.1024 2.7285zm-1.2127-25.301q-1.2127 1.2954-3.0041 1.2954-1.7363 0-3.0317-1.2954-1.2127-1.2127-1.2127-2.9766t1.2127-3.0041q1.2127-1.2678 3.0317-1.2678 1.7914 0 3.0041 1.2678 1.1851 1.2402 1.2127 3.0041-0.0276 1.6536-1.2127 2.9766z" fill="#f33" style="font-feature-settings:normal;font-variant-caps:normal;font-variant-ligatures:normal;font-variant-numeric:normal"/>
  <g fill="#333">
   <path d="m169.83 48.638v-8.7092l10.005 0.24805q1.2402 0.02756 2.2049-0.9095 0.90951-0.88194 0.90951-2.2049v-0.11024q0.0276-1.2954-0.88195-2.1497-0.99218-0.93706-2.2324-0.9095l-10.005 0.24805v-7.8273l10.611 0.49609q1.0749 0.05512 2.0119-0.68902 0.30317-0.24805 1.0749-1.7639l0.0276-0.11024q0.74415-1.5158-0.60633-3.1695-0.88195-1.1024-2.4529-1.1024h-14.028q-2.0946 0-3.4727 1.4056-1.4607 1.5158-1.4607 3.5278v24.915q0 2.0119 1.4607 3.4727t3.4727 1.4607h14.773q1.3229 0.02756 2.2324-0.90951 0.90951-0.88194 0.90951-2.2049v-0.11024q0-1.378-0.90951-2.2049-1.0198-0.9095-2.2324-0.9095z" style="font-feature-settings:normal;font-variant-caps:normal;font-variant-ligatures:normal;font-variant-numeric:normal"/>
   <path d="m196.9 40.838-8.4336-15.269q-1.0473-1.8741 0.19293-3.8309 1.1851-1.8741 3.3348-1.8741h0.44097q2.6734 0 3.6656 2.5356 2.5632 6.3665 5.2366 12.32l5.2917-12.32q1.0749-2.5356 3.6656-2.5356h0.0551q2.2324 0 3.4175 1.9293 1.1851 1.9568 0.11024 3.8034l-8.7092 14.938v10.115q0 2.0395-1.2127 3.2522-1.1851 1.2127-2.8663 1.2127h-0.11024q-1.6812 0-2.8663-1.2127-1.2127-1.1851-1.2127-3.2522z" style="font-feature-settings:normal;font-variant-caps:normal;font-variant-ligatures:normal;font-variant-numeric:normal"/>
   <path d="m225.86 29.51 6.0358 21.167q0.52365 1.819 2.0671 3.0317 1.571 1.1851 3.4726 1.1851h0.11024q1.8466 0 3.5278-1.1851 1.571-1.1576 2.0946-3.0317l5.9807-21.167-0.4961 21.773q-0.0276 1.4883 1.0749 2.5632 1.0749 1.0473 2.5907 1.0473h0.0551q1.9292 0 3.0868-1.1024 1.1024-1.0473 1.1024-2.508v-24.171q0-2.8388-2.0119-4.7956-1.9568-1.9568-4.7404-1.9568h-0.0827q-2.26 0-4.079 1.3505-1.7914 1.378-2.4254 3.5278l-5.6775 19.871-5.7326-19.926q-0.6339-2.1773-2.4254-3.4727-1.7914-1.3505-4.0239-1.3505h-0.0827q-2.8388 0-4.7956 1.9568t-1.9568 4.7956v24.171q0 1.4056 1.1024 2.508t2.508 1.1024h0.60633q1.5434 0 2.6183-1.1024 1.0473-1.0197 1.0198-2.508z" style="font-feature-settings:normal;font-variant-caps:normal;font-variant-ligatures:normal;font-variant-numeric:normal"/>
  </g>
 </g>
</svg>
