<svg width="128" height="128" version="1.1" viewBox="0 0 516.73 516.73" xmlns="http://www.w3.org/2000/svg">
 <path d="m516.73 266.7c-0.665-34.825-8.221-69.54-22.175-101.28-13.908-31.771-34.094-60.551-58.876-84.333-24.767-23.8-54.139-42.615-85.929-55.027-31.773-12.46-65.937-18.412-99.687-17.69-33.755 0.668-67.36 8.007-98.091 21.539-30.754 13.488-58.615 33.058-81.632 57.071-23.033 24.001-41.229 52.452-53.222 83.229-12.038 30.76-17.775 63.811-17.055 96.494 0.67 32.688 7.793 65.182 20.903 94.899 13.067 29.738 32.019 56.681 55.266 78.931 23.234 22.268 50.766 39.846 80.528 51.417 29.749 11.616 61.69 17.136 93.303 16.419 31.62-0.671 63.001-7.58 91.707-20.268 28.724-12.646 54.747-30.979 76.231-53.461 21.503-22.469 38.461-49.08 49.611-77.827 6.79-17.427 11.396-35.624 13.824-54.062 0.649 0.037 1.302 0.063 1.96 0.063 18.409 0 33.333-14.923 33.333-33.333 0-0.936-0.049-1.861-0.124-2.777l0.125-1e-3zm-52.965 88.514c-12.226 27.71-29.94 52.812-51.655 73.532-21.703 20.732-47.396 37.076-75.127 47.807-27.724 10.77-57.443 15.859-86.919 15.146-29.481-0.677-58.644-7.154-85.323-18.997-26.692-11.806-50.877-28.901-70.83-49.849-19.968-20.938-35.691-45.711-46.001-72.427-10.349-26.712-15.223-55.321-14.512-83.728 0.678-28.413 6.941-56.465 18.361-82.131 11.384-25.677 27.863-48.943 48.045-68.13 20.172-19.202 44.026-34.307 69.726-44.195 25.697-9.928 53.195-14.587 80.534-13.877 27.343 0.68 54.286 6.728 78.939 17.726 24.662 10.963 47.008 26.824 65.429 46.241 18.436 19.405 32.922 42.341 42.391 67.025 9.504 24.684 13.948 51.072 13.241 77.342h0.125c-0.076 0.916-0.125 1.841-0.125 2.777 0 17.193 13.018 31.34 29.732 33.137-3.242 18.138-8.609 35.844-16.031 52.601z" fill="#BDBDBD"/>
</svg>
