<svg width="32" height="32" viewBox="0 0 32 32" xmlns="http://www.w3.org/2000/svg"><g fill="#333" fill-rule="evenodd"><path d="M20 11.75V13c0 .56-.448 1-1 1a1 1 0 0 1-1-1.003V8.003a1 1 0 0 1 2 .002V9.5l-1 3 1-.75z"/><path d="M22.5 12h1.497A.994.994 0 0 1 25 13a1 1 0 0 1-1.003 1h-4.994A.994.994 0 0 1 18 13a1 1 0 0 1 1.003-1h1.247l-.75 1 3-1zM12 20.25V19c0-.56.448-1 1-1a1 1 0 0 1 1 1.003v4.994a1 1 0 0 1-2-.002V22.5l1-3-1 .75z"/><path d="M9.5 20H8.003A.994.994 0 0 1 7 19a1 1 0 0 1 1.003-1h4.994A.994.994 0 0 1 14 19a1 1 0 0 1-1.003 1H11.75l.75-1-3 1z"/><path d="M10.343 20.243l-3.22 3.22a1 1 0 1 0 1.415 1.414l3.22-3.22L13 20h.414l.293-.293a1 1 0 0 0-1.414-1.414l-.293.293V19l-1.657 1.243zm11.314-8.486l3.22-3.22a1 1 0 1 0-1.415-1.414l-3.22 3.22L19 12h-.414l-.293.293a1 1 0 1 0 1.414 1.414l.293-.293V13l1.657-1.243z"/></g></svg>