<svg width="32" height="32" viewBox="0 0 32 32" xmlns="http://www.w3.org/2000/svg"><g fill="#333" fill-rule="evenodd"><path d="M9 22.75V24c0 .56-.448 1-1 1a1 1 0 0 1-1-1.003v-4.994a1 1 0 0 1 2 .002V20.5l-1 3 1-.75z"/><path d="M11.5 23h1.497A.994.994 0 0 1 14 24a1 1 0 0 1-1.003 1H8.003A.994.994 0 0 1 7 24a1 1 0 0 1 1.003-1H9.25l-.75 1 3-1zM23 9.25V8c0-.56.448-1 1-1a1 1 0 0 1 1 1.003v4.994a1 1 0 0 1-2-.002V11.5l1-3-1 .75z"/><path d="M20.5 9h-1.497A.994.994 0 0 1 18 8a1 1 0 0 1 1.003-1h4.994A.994.994 0 0 1 25 8a1 1 0 0 1-1.003 1H22.75l.75-1-3 1zM10.657 22.757l3.22-3.22a1 1 0 1 0-1.415-1.414l-3.22 3.22L8 23h-.414l-.293.293a1 1 0 0 0 1.414 1.414L9 24.414V24l1.657-1.243z"/><path d="M21.343 9.243l-3.22 3.22a1 1 0 1 0 1.415 1.414l3.22-3.22L24 9h.414l.293-.293a1 1 0 0 0-1.414-1.414L23 7.586V8l-1.657 1.243z"/></g></svg>