<svg width="32" height="32" viewBox="0 0 32 32" xmlns="http://www.w3.org/2000/svg"><path d="M22.77 16l2.51 1.484c.947.56.95 1.47 0 2.032l-8.417 4.974c-.472.28-1.25.282-1.726 0L6.72 19.516c-.947-.56-.95-1.47 0-2.032L9.23 16l-2.51-1.484c-.947-.56-.95-1.47 0-2.032l8.417-4.974c.472-.28 1.25-.282 1.726 0l8.418 4.974c.947.56.95 1.47 0 2.032L22.77 16zm-1.72 1.016l2.168 1.28c.187.11.19.295 0 .408L16 22.97l-7.218-4.266c-.187-.11-.19-.295 0-.408l2.168-1.28 4.187 2.474c.477.282 1.254.28 1.726 0l4.187-2.474zm-12.268-3.72c-.19.113-.187.297 0 .408L16 17.97l7.218-4.266c.19-.113.187-.297 0-.408L16 9.03l-7.218 4.266z" fill="#4D4D4D" fill-rule="evenodd"/></svg>