<svg width="32" height="32" viewBox="0 0 32 32" xmlns="http://www.w3.org/2000/svg"><path d="M16.222 23.122L13 23.514v-1.946h2.12-3.62c-1.376 0-2.5-1.093-2.5-2.433 0-1.34 1.122-2.432 2.5-2.432h7c2.485 0 4.5-1.965 4.5-4.38 0-2.417-2.023-4.377-4.5-4.377h-6.645c-.43-1.407-1.77-2.432-3.355-2.432C6.567 5.514 5 7.038 5 8.92c0 1.88 1.567 3.404 3.5 3.404 1.586 0 2.925-1.025 3.355-2.432H18.5c1.376 0 2.5 1.092 2.5 2.432 0 1.34-1.122 2.433-2.5 2.433h-7c-2.485 0-4.5 1.965-4.5 4.378 0 2.418 2.023 4.38 4.5 4.38h1.75H13v-1.947s2.123.242 3.275.385l-2.254-1.828a1.006 1.006 0 0 1 .187-1.19.964.964 0 0 1 1.383.03l2.633 2.806c.176.188.266.425.272.662a1 1 0 0 1-.256.78l-1.307 1.423-1.353 1.475a.95.95 0 0 1-1.373.037 1.114 1.114 0 0 1-.12-1.432l2.135-1.593zm7.278 2.824c1.933 0 3.5-1.525 3.5-3.405s-1.567-3.405-3.5-3.405S20 20.66 20 22.54c0 1.88 1.567 3.406 3.5 3.406zm0-1.703c.966 0 1.75-.762 1.75-1.702s-.784-1.702-1.75-1.702-1.75.762-1.75 1.703c0 .94.784 1.703 1.75 1.703zm-15-13.62c.966 0 1.75-.764 1.75-1.704S9.466 7.215 8.5 7.215 6.75 7.98 6.75 8.92c0 .94.784 1.702 1.75 1.702z" fill="#4C4C4C" fill-rule="evenodd"/></svg>